<?xml version="1.0" encoding="UTF-8"?>
<!DOCTYPE svg PUBLIC "-//W3C//DTD SVG 1.1//EN" "http://www.w3.org/Graphics/SVG/1.1/DTD/svg11.dtd">
<!-- Creator: CorelDRAW X7 -->
<svg xmlns="http://www.w3.org/2000/svg" xml:space="preserve" width="1.23in" height="1.22295in" version="1.1" style="shape-rendering:geometricPrecision; text-rendering:geometricPrecision; image-rendering:optimizeQuality; fill-rule:evenodd; clip-rule:evenodd"
viewBox="0 0 183 182"
 xmlns:xlink="http://www.w3.org/1999/xlink">
 <defs>
  <style type="text/css">
   <![CDATA[
    .str0 {stroke:#E31E24;stroke-width:8.23718}
    .fil2 {fill:none}
    .fil1 {fill:#E53624;fill-rule:nonzero}
    .fil0 {fill:#261B1C;fill-rule:nonzero}
   ]]>
  </style>
 </defs>
 <g id="Layer_x0020_1">
  <metadata id="CorelCorpID_0Corel-Layer"/>
  <g id="_2085042952608">
   <path class="fil0" d="M147 157c8,-9 11,-21 11,-35 0,-15 -5,-29 -15,-42 19,8 29,22 29,40 0,17 -8,29 -25,37zm-102 -150l0 119c0,12 1,20 2,25 1,4 4,8 9,12 -9,-2 -15,-5 -18,-9 -4,-5 -5,-12 -5,-22l0 -94c0,-9 -1,-14 -2,-17 -1,-3 -3,-6 -6,-8 -3,-3 -8,-4 -14,-5l0 -3c12,1 23,2 34,2zm23 81l0 40c0,9 1,16 3,20 1,4 4,8 9,11 4,2 10,4 17,4 9,0 18,-3 25,-10 8,-7 11,-16 11,-30 0,-28 -12,-43 -36,-43 -9,0 -19,3 -29,8zm-11 44l0 -125c6,0 11,-1 14,-2 -2,10 -3,24 -3,40l0 33c10,-5 20,-7 30,-7 10,0 19,2 26,7 8,4 14,10 18,18 3,8 5,16 5,25 0,16 -5,29 -14,38 -10,9 -22,13 -36,13 -10,0 -18,-2 -24,-6 -7,-3 -11,-8 -13,-13 -2,-4 -3,-11 -3,-21z"/>
   <path class="fil1" d="M145 155c7,-9 11,-21 11,-36 0,-15 -5,-29 -16,-41 20,8 30,21 30,40 0,17 -9,29 -25,37zm-102 -150l0 119c0,12 0,20 2,25 1,4 4,8 8,12 -8,-2 -14,-5 -18,-9 -3,-5 -5,-12 -5,-22l0 -95c0,-8 0,-14 -1,-17 -1,-3 -3,-5 -6,-8 -4,-2 -8,-4 -14,-5l0 -2c12,1 23,2 34,2zm23 80l0 41c0,9 1,16 2,20 2,4 5,7 9,10 5,3 11,5 17,5 10,0 18,-4 26,-10 7,-7 11,-17 11,-30 0,-29 -12,-43 -37,-43 -9,0 -18,2 -28,7zm-12 45l0 -125c6,0 11,-1 15,-2 -2,10 -3,23 -3,39l0 33c10,-4 19,-6 29,-6 10,0 19,2 27,7 8,4 13,10 17,18 4,7 6,16 6,25 0,16 -5,28 -15,37 -10,9 -22,14 -36,14 -9,0 -17,-2 -24,-6 -7,-4 -11,-8 -13,-13 -2,-5 -3,-12 -3,-21z"/>
   <rect class="fil2 str0" x="4" y="4" width="175" height="174" rx="11" ry="10"/>
  </g>
 </g>
</svg>
